<?xml version="1.0" encoding="utf-8"?>
<!-- Generator: Adobe Illustrator 19.2.0, SVG Export Plug-In . SVG Version: 6.00 Build 0)  -->
<svg version="1.1" id="Layer_1" xmlns="http://www.w3.org/2000/svg" xmlns:xlink="http://www.w3.org/1999/xlink" x="0px" y="0px"
	 viewBox="0 0 639.5 147.9" style="enable-background:new 0 0 639.5 147.9;" xml:space="preserve">
<style type="text/css">
	.st0{fill:#074C4B;}
	.st1{fill:#46DC96;}
	.st2{enable-background:new    ;}
</style>
<title>web-ke</title>
<g>
	<path class="st0" d="M279.1,90.5v5.8c0,4.2,1,5.6,4.1,5.6c2.6,0,4-1.2,4-3.8v-8.2c-0.1-3.6-0.9-4.3-4.6-4.5h-2.3
		c-12-0.1-14-1.9-14.5-12.9V58.3c0-8.4,2.9-10.3,16.5-10.3c14.5,0,17.8,1.9,17.8,10.2v9.7h-12.9V63c0-2.9-1.4-4.3-3.8-4.3
		c-2.6,0-3.8,1.2-3.8,4v5.6c0,4.1,0.7,4.6,8.5,5h0.5c10.9,0.2,12.8,2.2,12.9,14.1v10.9c0,6.6-1.7,11.3-4.8,13c-2.5,1.4-7.2,2-14.5,2
		c-6.1,0-9.9-0.6-12.2-1.9c-3-1.6-4.6-6.3-4.6-13.3v-7.6H279.1L279.1,90.5z"/>
	<path class="st0" d="M324,36.7v12h20.5v10.8h-20.4v37.3c0,2.7,1.2,4.2,3.6,4.2c2.7,0,4-1.9,4-6.1V78h12.8v21.9
		c0,5.2-0.7,8.4-2.4,9.9c-2,2-7.1,3.2-13.3,3.2c-8.8,0-15-1.4-17.2-3.7c-1.6-1.7-2.2-5.2-2.2-12.5V36.7H324L324,36.7z"/>
	<path class="st0" d="M373,76.1V63.4c0-3.7-1-5-3.7-5c-2.5,0-3.7,1.2-3.7,3.7v35.5c0.1,2.1,1.9,3.8,4,3.8c2.2,0,3.5-1.6,3.5-4.3V86
		h14.3v13.3c0,6.4-1.4,10.4-4.3,11.9c-2.6,1.4-6.8,2-12.6,2c-6.2,0-11.9-1-14.6-2.4c-3.1-1.7-4.7-6.2-4.7-13v-35
		c0-13.3,2.4-15.4,17.7-15.4c6,0,10.2,0.6,13.3,1.9c3.7,1.4,5,3.6,5,8.3l0.2,18.5L373,76.1L373,76.1z"/>
	<path class="st0" d="M409.2,48.7v46.7c0,3.5,1.5,5.3,4.1,5.3s3.3-1.4,3.3-5.3V48.7h13.9V100c0,9-1.2,11.3-7.1,12.3
		c-3.8,0.5-7.7,0.9-11.5,1c-6.3,0-12.3-1.6-14.3-3.8S395,104,395,96.2V48.7H409.2z"/>
	<path class="st0" d="M454.5,36.7v12.9c2.2-1,4.7-1.5,7.1-1.4c11.5,0,15.1,3.2,15.1,13.6v34.8c0,8.7-0.4,10.3-2.9,12.8
		c-3.1,3.1-7.3,4.2-15.5,4.2c-8.5,0-13.1-1.2-15.9-4.2c-2-2.2-2.6-4.6-2.6-10.9V36.7H454.5L454.5,36.7z M462.2,64.5
		c0-4-1-5.2-4.1-5.2c-2.5,0-3.6,1.5-3.6,4.6v33.7c0,3.1,1.2,4.7,3.7,4.7c2.7,0,4-1.6,4-5.2V64.5L462.2,64.5z"/>
	<path class="st0" d="M506.6,62.7c0.2-1.9-1.2-3.5-3.1-3.7c-0.1,0-0.2,0-0.4,0c-2.1-0.2-4,1.4-4.2,3.6c0,0.2,0,0.4,0,0.6v3h-13.8
		v-5.1c0-5.2,1-9,2.9-10.5c2.1-1.7,7.4-2.9,14.1-2.9c8.5,0,13.3,1.1,15.7,4c2,2.4,2.6,5.8,2.6,16.2v32.4c0,5-0.9,8.8-2.4,10.3
		c-2,1.7-7.4,2.9-14.8,2.9c-16.4,0-18.8-2.2-18.8-16.7V82.9c0-9.2,3.5-12.5,12.9-12.5c3.1,0.1,6.2,0.4,9.2,0.9v-8.6L506.6,62.7
		L506.6,62.7z M506.6,85.3c0-2.5-1.2-3.7-3.8-3.7c-3,0-3.8,1.1-3.8,4.7v10.4c0,3.8,0.9,5.1,3.7,5.1c2.6,0,4-1.5,4-4.2V85.3H506.6
		L506.6,85.3z"/>
	<path class="st0" d="M543.4,36.7v12h20.4v10.8h-20.4v37.3c0,2.7,1.2,4.2,3.6,4.2c2.7,0,4-1.9,4-6.1V78h12.9v21.9
		c0,5.2-0.7,8.4-2.4,9.9c-2,2-7.1,3.2-13.3,3.2c-8.8,0-15-1.4-17.2-3.7c-1.6-1.7-2.2-5.2-2.2-12.5V36.7H543.4L543.4,36.7z"/>
	<path class="st0" d="M570.3,63.2c0-5.5,0.5-8.6,1.5-10.4c2.1-3.6,6.6-5.1,16-5.1c8.5,0,13,1.1,15.6,3.8c1.9,2.1,2.5,4.7,2.5,11.3
		v36.6c0,11-3.5,14.3-15.5,14.3c-9.7,0-12.4-0.4-15-1.7c-3.5-1.9-5.1-6.4-5.1-14V63.2z M584.7,97.9c0,2.1,1.5,3.5,3.8,3.5
		c2.5,0,3.5-1.4,3.5-4.5V64c0-3.1-1.4-4.8-3.8-4.8s-3.5,1.5-3.5,4.8V97.9z"/>
	<path class="st0" d="M614.5,60.1c0-8.3,4.2-11.9,13.9-11.9c4.1-0.1,8.3,0.7,12.1,2.2v10.4c-3.6-1.5-5.6-2-7.3-2
		c-3,0-4.8,1.6-4.8,4.1v49.2h-13.9V60.1z"/>
	<path class="st1" d="M278.9,147.8H127.7c-5.2,0,12.9-4.2,12.9-9.4l0,0V9.4c0-5.2-14.1-9.4-8.9-9.4H150h128.9c5.2,0,9.4,4.2,9.4,9.4
		l0,0v24.9H281V9.4c0-1.2-0.9-2.1-2.1-2.1h-129c-1.2,0-2.1,0.9-2.1,2.1v128.9c0,1.2,0.9,2.1,2.1,2.1h128.9c1.2,0,2.1-0.9,2.1-2.1
		v-15.5h7.3v15.5c0.1,5.1-3.9,9.4-9,9.5C279.1,147.8,279,147.8,278.9,147.8z"/>
	<path class="st0" d="M212,35.6v13.1h-18.7v15.4h17v14.3h-17v17.3h19.9v14.9h-35.3v-75H212z"/>
	<path class="st0" d="M241.8,62.3c0.2-1.8-1.1-3.4-2.9-3.6c-0.2,0-0.3,0-0.5,0c-2.1-0.2-3.9,1.4-4.1,3.5c0,0.2,0,0.4,0,0.6v2.9
		h-13.4v-5c0-5.1,1-8.8,2.8-10.3c2.1-1.7,7.3-2.8,13.8-2.8c8.4,0,13,1.1,15.4,3.9c1.9,2.3,2.5,5.7,2.5,15.9V99
		c0,4.8-0.8,8.6-2.3,10.1c-1.9,1.7-7.3,2.8-14.4,2.8c-16,0-18.4-2.2-18.4-16.4V82.1c0-9,3.4-12.2,12.6-12.2c3,0,6,0.3,9,0.8v-8.4
		L241.8,62.3L241.8,62.3z M241.8,84.4c0-2.4-1.2-3.6-3.8-3.6c-2.9,0-3.8,1.1-3.8,4.6v10.2c0,3.8,0.8,5,3.6,5c2.5,0,3.9-1.5,3.9-4.1
		V84.4H241.8L241.8,84.4z"/>
	<path class="st1" d="M256.2,17.7v16.6h-3V17.7H256.2z"/>
	<path class="st1" d="M268.2,17.7v9.6h0.9v2.8h-0.9v4.2h-3.1v-4.2h-5v-2.8l5.3-9.6L268.2,17.7L268.2,17.7z M265.2,22.6l-0.3,1
		l-1.7,3.6h2V22.6L265.2,22.6z"/>
</g>
<path class="st1" d="M138.3,0H9.4C4.2,0,0,4.2,0,9.4v128.8c0,5.2,4.2,9.4,9.4,9.4h128.8c5.2,0,9.4-4.2,9.4-9.4V9.4
	C147.7,4.2,143.5,0,138.3,0z M140.4,122.8v15.5c0,1.2-1,2.1-2.1,2.1H9.4c-1.2,0-2.1-1-2.1-2.1V9.4c0-1.2,1-2.1,2.1-2.1h128.8
	c1.2,0,2.1,1,2.1,2.1L140.4,122.8L140.4,122.8z"/>
<g class="st2">
	<path class="st0" d="M48.6,29.9l0.1,28.3l11.6-28.3h15.8l-15.8,36l19.2,45.7h-18L48.7,78.5l-0.1,33.1H33.6V29.9H48.6z"/>
</g>
<g class="st2">
	<path class="st0" d="M96.9,84.5v13c0,2.2,1.8,4.2,3.9,4.2c2.3,0,3.4-1.5,3.4-4.5v-7h14.1v11.6c0,3.9-1,7.1-2.6,8.7
		c-1.8,1.7-7.6,2.8-15.3,2.8c-14,0-17.8-3.1-17.8-14.3V61.1c0-5.3,0.9-8.8,2.4-10.2c2.1-1.8,7.5-3.1,13.7-3.1c7.6,0,12.7,1,15.9,2.8
		c2.6,1.5,3.6,3.9,3.6,8.9v24.9H96.9z M104.6,73.4V63.1c0-2.7-1.5-4.3-3.8-4.3c-2.1,0-3.7,1.6-3.7,3.8v10.8H104.6z"/>
</g>
<path class="st1" d="M115.4,17.4V34h-3V17.4H115.4z"/>
<path class="st1" d="M127.4,17.4V27h0.9v2.8h-0.9V34h-3.1v-4.2h-5V27l5.3-9.6H127.4L127.4,17.4z M124.4,22.3l-0.3,1l-1.7,3.6h2V22.3
	z"/>
</svg>
